<?xml version="1.0" encoding="utf-8" standalone="no"?>
<!DOCTYPE svg PUBLIC "-//W3C//DTD SVG 1.1//EN"
  "http://www.w3.org/Graphics/SVG/1.1/DTD/svg11.dtd">
<svg xmlns:xlink="http://www.w3.org/1999/xlink" width="576pt" height="288pt" viewBox="0 0 576 288" xmlns="http://www.w3.org/2000/svg" version="1.1">
 <metadata>
  <rdf:RDF xmlns:dc="http://purl.org/dc/elements/1.1/" xmlns:cc="http://creativecommons.org/ns#" xmlns:rdf="http://www.w3.org/1999/02/22-rdf-syntax-ns#">
   <cc:Work>
    <dc:type rdf:resource="http://purl.org/dc/dcmitype/StillImage"/>
    <dc:date>2022-08-05T16:39:26.792658</dc:date>
    <dc:format>image/svg+xml</dc:format>
    <dc:creator>
     <cc:Agent>
      <dc:title>Matplotlib v3.5.1, https://matplotlib.org/</dc:title>
     </cc:Agent>
    </dc:creator>
   </cc:Work>
  </rdf:RDF>
 </metadata>
 <defs>
  <style type="text/css">*{stroke-linejoin: round; stroke-linecap: butt}</style>
 </defs>
 <g id="figure_1">
  <g id="patch_1">
   <path d="M 0 288 
L 576 288 
L 576 0 
L 0 0 
L 0 288 
z
" style="fill: none"/>
  </g>
  <g id="axes_1">
   <g id="patch_2">
    <path d="M 61.13 232.36 
L 561.96 232.36 
L 561.96 14.04 
L 61.13 14.04 
L 61.13 232.36 
z
" style="fill: none"/>
   </g>
   <g id="matplotlib.axis_1">
    <g id="xtick_1">
     <g id="line2d_1">
      <defs>
       <path id="m470161f403" d="M 0 0 
L 0 3.5 
" style="stroke: #000000; stroke-width: 0.8"/>
      </defs>
      <g>
       <use xlink:href="#m470161f403" x="83.895" y="232.36" style="stroke: #000000; stroke-width: 0.8"/>
      </g>
     </g>
     <g id="text_1">
      <!-- 0 -->
      <g transform="translate(80.280391 248.665156)scale(0.13 -0.13)">
       <defs>
        <path id="ArialMT-30" d="M 266 2259 
Q 266 3072 433 3567 
Q 600 4063 929 4331 
Q 1259 4600 1759 4600 
Q 2128 4600 2406 4451 
Q 2684 4303 2865 4023 
Q 3047 3744 3150 3342 
Q 3253 2941 3253 2259 
Q 3253 1453 3087 958 
Q 2922 463 2592 192 
Q 2263 -78 1759 -78 
Q 1097 -78 719 397 
Q 266 969 266 2259 
z
M 844 2259 
Q 844 1131 1108 757 
Q 1372 384 1759 384 
Q 2147 384 2411 759 
Q 2675 1134 2675 2259 
Q 2675 3391 2411 3762 
Q 2147 4134 1753 4134 
Q 1366 4134 1134 3806 
Q 844 3388 844 2259 
z
" transform="scale(0.015625)"/>
       </defs>
       <use xlink:href="#ArialMT-30"/>
      </g>
     </g>
    </g>
    <g id="xtick_2">
     <g id="line2d_2">
      <g>
       <use xlink:href="#m470161f403" x="174.955" y="232.36" style="stroke: #000000; stroke-width: 0.8"/>
      </g>
     </g>
     <g id="text_2">
      <!-- 1 -->
      <g transform="translate(171.340391 248.665156)scale(0.13 -0.13)">
       <defs>
        <path id="ArialMT-31" d="M 2384 0 
L 1822 0 
L 1822 3584 
Q 1619 3391 1289 3197 
Q 959 3003 697 2906 
L 697 3450 
Q 1169 3672 1522 3987 
Q 1875 4303 2022 4600 
L 2384 4600 
L 2384 0 
z
" transform="scale(0.015625)"/>
       </defs>
       <use xlink:href="#ArialMT-31"/>
      </g>
     </g>
    </g>
    <g id="xtick_3">
     <g id="line2d_3">
      <g>
       <use xlink:href="#m470161f403" x="266.015" y="232.36" style="stroke: #000000; stroke-width: 0.8"/>
      </g>
     </g>
     <g id="text_3">
      <!-- 2 -->
      <g transform="translate(262.400391 248.665156)scale(0.13 -0.13)">
       <defs>
        <path id="ArialMT-32" d="M 3222 541 
L 3222 0 
L 194 0 
Q 188 203 259 391 
Q 375 700 629 1000 
Q 884 1300 1366 1694 
Q 2113 2306 2375 2664 
Q 2638 3022 2638 3341 
Q 2638 3675 2398 3904 
Q 2159 4134 1775 4134 
Q 1369 4134 1125 3890 
Q 881 3647 878 3216 
L 300 3275 
Q 359 3922 746 4261 
Q 1134 4600 1788 4600 
Q 2447 4600 2831 4234 
Q 3216 3869 3216 3328 
Q 3216 3053 3103 2787 
Q 2991 2522 2730 2228 
Q 2469 1934 1863 1422 
Q 1356 997 1212 845 
Q 1069 694 975 541 
L 3222 541 
z
" transform="scale(0.015625)"/>
       </defs>
       <use xlink:href="#ArialMT-32"/>
      </g>
     </g>
    </g>
    <g id="xtick_4">
     <g id="line2d_4">
      <g>
       <use xlink:href="#m470161f403" x="357.075" y="232.36" style="stroke: #000000; stroke-width: 0.8"/>
      </g>
     </g>
     <g id="text_4">
      <!-- 3 -->
      <g transform="translate(353.460391 248.665156)scale(0.13 -0.13)">
       <defs>
        <path id="ArialMT-33" d="M 269 1209 
L 831 1284 
Q 928 806 1161 595 
Q 1394 384 1728 384 
Q 2125 384 2398 659 
Q 2672 934 2672 1341 
Q 2672 1728 2419 1979 
Q 2166 2231 1775 2231 
Q 1616 2231 1378 2169 
L 1441 2663 
Q 1497 2656 1531 2656 
Q 1891 2656 2178 2843 
Q 2466 3031 2466 3422 
Q 2466 3731 2256 3934 
Q 2047 4138 1716 4138 
Q 1388 4138 1169 3931 
Q 950 3725 888 3313 
L 325 3413 
Q 428 3978 793 4289 
Q 1159 4600 1703 4600 
Q 2078 4600 2393 4439 
Q 2709 4278 2876 4000 
Q 3044 3722 3044 3409 
Q 3044 3113 2884 2869 
Q 2725 2625 2413 2481 
Q 2819 2388 3044 2092 
Q 3269 1797 3269 1353 
Q 3269 753 2831 336 
Q 2394 -81 1725 -81 
Q 1122 -81 723 278 
Q 325 638 269 1209 
z
" transform="scale(0.015625)"/>
       </defs>
       <use xlink:href="#ArialMT-33"/>
      </g>
     </g>
    </g>
    <g id="xtick_5">
     <g id="line2d_5">
      <g>
       <use xlink:href="#m470161f403" x="448.135" y="232.36" style="stroke: #000000; stroke-width: 0.8"/>
      </g>
     </g>
     <g id="text_5">
      <!-- 4 -->
      <g transform="translate(444.520391 248.665156)scale(0.13 -0.13)">
       <defs>
        <path id="ArialMT-34" d="M 2069 0 
L 2069 1097 
L 81 1097 
L 81 1613 
L 2172 4581 
L 2631 4581 
L 2631 1613 
L 3250 1613 
L 3250 1097 
L 2631 1097 
L 2631 0 
L 2069 0 
z
M 2069 1613 
L 2069 3678 
L 634 1613 
L 2069 1613 
z
" transform="scale(0.015625)"/>
       </defs>
       <use xlink:href="#ArialMT-34"/>
      </g>
     </g>
    </g>
    <g id="xtick_6">
     <g id="line2d_6">
      <g>
       <use xlink:href="#m470161f403" x="539.195" y="232.36" style="stroke: #000000; stroke-width: 0.8"/>
      </g>
     </g>
     <g id="text_6">
      <!-- 5 -->
      <g transform="translate(535.580391 248.665156)scale(0.13 -0.13)">
       <defs>
        <path id="ArialMT-35" d="M 266 1200 
L 856 1250 
Q 922 819 1161 601 
Q 1400 384 1738 384 
Q 2144 384 2425 690 
Q 2706 997 2706 1503 
Q 2706 1984 2436 2262 
Q 2166 2541 1728 2541 
Q 1456 2541 1237 2417 
Q 1019 2294 894 2097 
L 366 2166 
L 809 4519 
L 3088 4519 
L 3088 3981 
L 1259 3981 
L 1013 2750 
Q 1425 3038 1878 3038 
Q 2478 3038 2890 2622 
Q 3303 2206 3303 1553 
Q 3303 931 2941 478 
Q 2500 -78 1738 -78 
Q 1113 -78 717 272 
Q 322 622 266 1200 
z
" transform="scale(0.015625)"/>
       </defs>
       <use xlink:href="#ArialMT-35"/>
      </g>
     </g>
    </g>
    <g id="text_7">
     <!-- $\omega$ (eV) -->
     <g transform="translate(286.435 268.388906)scale(0.18 -0.18)">
      <defs>
       <path id="Cmmi10-21" d="M 775 -72 
Q 413 -72 252 193 
Q 91 459 91 844 
Q 91 1097 136 1339 
Q 181 1581 273 1829 
Q 366 2078 484 2295 
Q 603 2513 750 2719 
Q 778 2759 825 2759 
Q 866 2759 891 2734 
Q 916 2709 916 2675 
Q 916 2641 897 2613 
Q 313 1809 313 1131 
Q 313 838 448 627 
Q 584 416 863 416 
Q 1103 416 1308 556 
Q 1513 697 1663 916 
Q 1663 1028 1702 1265 
Q 1741 1503 1823 1689 
Q 1906 1875 2022 1875 
Q 2169 1875 2169 1703 
Q 2169 1603 2126 1451 
Q 2084 1300 2032 1169 
Q 1981 1038 1906 872 
Q 1981 416 2363 416 
Q 2584 416 2807 544 
Q 3031 672 3203 880 
Q 3375 1088 3473 1328 
Q 3572 1569 3572 1784 
Q 3572 1978 3511 2086 
Q 3450 2194 3350 2312 
Q 3250 2431 3250 2503 
Q 3250 2628 3356 2731 
Q 3463 2834 3584 2834 
Q 3741 2834 3806 2692 
Q 3872 2550 3872 2369 
Q 3872 2075 3755 1628 
Q 3638 1181 3488 884 
Q 3281 481 2970 204 
Q 2659 -72 2272 -72 
Q 2025 -72 1873 76 
Q 1722 225 1678 481 
Q 1500 228 1272 78 
Q 1044 -72 775 -72 
z
" transform="scale(0.015625)"/>
       <path id="ArialMT-20" transform="scale(0.015625)"/>
       <path id="ArialMT-28" d="M 1497 -1347 
Q 1031 -759 709 28 
Q 388 816 388 1659 
Q 388 2403 628 3084 
Q 909 3875 1497 4659 
L 1900 4659 
Q 1522 4009 1400 3731 
Q 1209 3300 1100 2831 
Q 966 2247 966 1656 
Q 966 153 1900 -1347 
L 1497 -1347 
z
" transform="scale(0.015625)"/>
       <path id="ArialMT-65" d="M 2694 1069 
L 3275 997 
Q 3138 488 2766 206 
Q 2394 -75 1816 -75 
Q 1088 -75 661 373 
Q 234 822 234 1631 
Q 234 2469 665 2931 
Q 1097 3394 1784 3394 
Q 2450 3394 2872 2941 
Q 3294 2488 3294 1666 
Q 3294 1616 3291 1516 
L 816 1516 
Q 847 969 1125 678 
Q 1403 388 1819 388 
Q 2128 388 2347 550 
Q 2566 713 2694 1069 
z
M 847 1978 
L 2700 1978 
Q 2663 2397 2488 2606 
Q 2219 2931 1791 2931 
Q 1403 2931 1139 2672 
Q 875 2413 847 1978 
z
" transform="scale(0.015625)"/>
       <path id="ArialMT-56" d="M 1803 0 
L 28 4581 
L 684 4581 
L 1875 1253 
Q 2019 853 2116 503 
Q 2222 878 2363 1253 
L 3600 4581 
L 4219 4581 
L 2425 0 
L 1803 0 
z
" transform="scale(0.015625)"/>
       <path id="ArialMT-29" d="M 791 -1347 
L 388 -1347 
Q 1322 153 1322 1656 
Q 1322 2244 1188 2822 
Q 1081 3291 891 3722 
Q 769 4003 388 4659 
L 791 4659 
Q 1378 3875 1659 3084 
Q 1900 2403 1900 1659 
Q 1900 816 1576 28 
Q 1253 -759 791 -1347 
z
" transform="scale(0.015625)"/>
      </defs>
      <use xlink:href="#Cmmi10-21" transform="translate(0 0.203125)"/>
      <use xlink:href="#ArialMT-20" transform="translate(62.207031 0.203125)"/>
      <use xlink:href="#ArialMT-28" transform="translate(89.990234 0.203125)"/>
      <use xlink:href="#ArialMT-65" transform="translate(123.291016 0.203125)"/>
      <use xlink:href="#ArialMT-56" transform="translate(178.90625 0.203125)"/>
      <use xlink:href="#ArialMT-29" transform="translate(245.605469 0.203125)"/>
     </g>
    </g>
   </g>
   <g id="matplotlib.axis_2">
    <g id="ytick_1">
     <g id="line2d_7">
      <defs>
       <path id="m3c3ef7133a" d="M 0 0 
L -3.5 0 
" style="stroke: #000000; stroke-width: 0.8"/>
      </defs>
      <g>
       <use xlink:href="#m3c3ef7133a" x="61.13" y="206.180609" style="stroke: #000000; stroke-width: 0.8"/>
      </g>
     </g>
     <g id="text_8">
      <!-- −5 -->
      <g transform="translate(39.307969 210.833187)scale(0.13 -0.13)">
       <defs>
        <path id="ArialMT-2212" d="M 3381 1997 
L 356 1997 
L 356 2522 
L 3381 2522 
L 3381 1997 
z
" transform="scale(0.015625)"/>
       </defs>
       <use xlink:href="#ArialMT-2212"/>
       <use xlink:href="#ArialMT-35" x="58.398438"/>
      </g>
     </g>
    </g>
    <g id="ytick_2">
     <g id="line2d_8">
      <g>
       <use xlink:href="#m3c3ef7133a" x="61.13" y="175.699589" style="stroke: #000000; stroke-width: 0.8"/>
      </g>
     </g>
     <g id="text_9">
      <!-- −4 -->
      <g transform="translate(39.307969 180.352167)scale(0.13 -0.13)">
       <use xlink:href="#ArialMT-2212"/>
       <use xlink:href="#ArialMT-34" x="58.398438"/>
      </g>
     </g>
    </g>
    <g id="ytick_3">
     <g id="line2d_9">
      <g>
       <use xlink:href="#m3c3ef7133a" x="61.13" y="145.218568" style="stroke: #000000; stroke-width: 0.8"/>
      </g>
     </g>
     <g id="text_10">
      <!-- −3 -->
      <g transform="translate(39.307969 149.871146)scale(0.13 -0.13)">
       <use xlink:href="#ArialMT-2212"/>
       <use xlink:href="#ArialMT-33" x="58.398438"/>
      </g>
     </g>
    </g>
    <g id="ytick_4">
     <g id="line2d_10">
      <g>
       <use xlink:href="#m3c3ef7133a" x="61.13" y="114.737548" style="stroke: #000000; stroke-width: 0.8"/>
      </g>
     </g>
     <g id="text_11">
      <!-- −2 -->
      <g transform="translate(39.307969 119.390126)scale(0.13 -0.13)">
       <use xlink:href="#ArialMT-2212"/>
       <use xlink:href="#ArialMT-32" x="58.398438"/>
      </g>
     </g>
    </g>
    <g id="ytick_5">
     <g id="line2d_11">
      <g>
       <use xlink:href="#m3c3ef7133a" x="61.13" y="84.256528" style="stroke: #000000; stroke-width: 0.8"/>
      </g>
     </g>
     <g id="text_12">
      <!-- −1 -->
      <g transform="translate(39.307969 88.909106)scale(0.13 -0.13)">
       <use xlink:href="#ArialMT-2212"/>
       <use xlink:href="#ArialMT-31" x="58.398438"/>
      </g>
     </g>
    </g>
    <g id="ytick_6">
     <g id="line2d_12">
      <g>
       <use xlink:href="#m3c3ef7133a" x="61.13" y="53.775507" style="stroke: #000000; stroke-width: 0.8"/>
      </g>
     </g>
     <g id="text_13">
      <!-- 0 -->
      <g transform="translate(46.900781 58.428085)scale(0.13 -0.13)">
       <use xlink:href="#ArialMT-30"/>
      </g>
     </g>
    </g>
    <g id="ytick_7">
     <g id="line2d_13">
      <g>
       <use xlink:href="#m3c3ef7133a" x="61.13" y="23.294487" style="stroke: #000000; stroke-width: 0.8"/>
      </g>
     </g>
     <g id="text_14">
      <!-- 1 -->
      <g transform="translate(46.900781 27.947065)scale(0.13 -0.13)">
       <use xlink:href="#ArialMT-31"/>
      </g>
     </g>
    </g>
    <g id="text_15">
     <!-- Shift current $\sigma^{xxx}$ (10$^{2}$μA∙Å/V$^{2}$) -->
     <g transform="translate(31.347969 246.23)rotate(-90)scale(0.18 -0.18)">
      <defs>
       <path id="ArialMT-53" d="M 288 1472 
L 859 1522 
Q 900 1178 1048 958 
Q 1197 738 1509 602 
Q 1822 466 2213 466 
Q 2559 466 2825 569 
Q 3091 672 3220 851 
Q 3350 1031 3350 1244 
Q 3350 1459 3225 1620 
Q 3100 1781 2813 1891 
Q 2628 1963 1997 2114 
Q 1366 2266 1113 2400 
Q 784 2572 623 2826 
Q 463 3081 463 3397 
Q 463 3744 659 4045 
Q 856 4347 1234 4503 
Q 1613 4659 2075 4659 
Q 2584 4659 2973 4495 
Q 3363 4331 3572 4012 
Q 3781 3694 3797 3291 
L 3216 3247 
Q 3169 3681 2898 3903 
Q 2628 4125 2100 4125 
Q 1550 4125 1298 3923 
Q 1047 3722 1047 3438 
Q 1047 3191 1225 3031 
Q 1400 2872 2139 2705 
Q 2878 2538 3153 2413 
Q 3553 2228 3743 1945 
Q 3934 1663 3934 1294 
Q 3934 928 3725 604 
Q 3516 281 3123 101 
Q 2731 -78 2241 -78 
Q 1619 -78 1198 103 
Q 778 284 539 648 
Q 300 1013 288 1472 
z
" transform="scale(0.015625)"/>
       <path id="ArialMT-68" d="M 422 0 
L 422 4581 
L 984 4581 
L 984 2938 
Q 1378 3394 1978 3394 
Q 2347 3394 2619 3248 
Q 2891 3103 3008 2847 
Q 3125 2591 3125 2103 
L 3125 0 
L 2563 0 
L 2563 2103 
Q 2563 2525 2380 2717 
Q 2197 2909 1863 2909 
Q 1613 2909 1392 2779 
Q 1172 2650 1078 2428 
Q 984 2206 984 1816 
L 984 0 
L 422 0 
z
" transform="scale(0.015625)"/>
       <path id="ArialMT-69" d="M 425 3934 
L 425 4581 
L 988 4581 
L 988 3934 
L 425 3934 
z
M 425 0 
L 425 3319 
L 988 3319 
L 988 0 
L 425 0 
z
" transform="scale(0.015625)"/>
       <path id="ArialMT-66" d="M 556 0 
L 556 2881 
L 59 2881 
L 59 3319 
L 556 3319 
L 556 3672 
Q 556 4006 616 4169 
Q 697 4388 901 4523 
Q 1106 4659 1475 4659 
Q 1713 4659 2000 4603 
L 1916 4113 
Q 1741 4144 1584 4144 
Q 1328 4144 1222 4034 
Q 1116 3925 1116 3625 
L 1116 3319 
L 1763 3319 
L 1763 2881 
L 1116 2881 
L 1116 0 
L 556 0 
z
" transform="scale(0.015625)"/>
       <path id="ArialMT-74" d="M 1650 503 
L 1731 6 
Q 1494 -44 1306 -44 
Q 1000 -44 831 53 
Q 663 150 594 308 
Q 525 466 525 972 
L 525 2881 
L 113 2881 
L 113 3319 
L 525 3319 
L 525 4141 
L 1084 4478 
L 1084 3319 
L 1650 3319 
L 1650 2881 
L 1084 2881 
L 1084 941 
Q 1084 700 1114 631 
Q 1144 563 1211 522 
Q 1278 481 1403 481 
Q 1497 481 1650 503 
z
" transform="scale(0.015625)"/>
       <path id="ArialMT-63" d="M 2588 1216 
L 3141 1144 
Q 3050 572 2676 248 
Q 2303 -75 1759 -75 
Q 1078 -75 664 370 
Q 250 816 250 1647 
Q 250 2184 428 2587 
Q 606 2991 970 3192 
Q 1334 3394 1763 3394 
Q 2303 3394 2647 3120 
Q 2991 2847 3088 2344 
L 2541 2259 
Q 2463 2594 2264 2762 
Q 2066 2931 1784 2931 
Q 1359 2931 1093 2626 
Q 828 2322 828 1663 
Q 828 994 1084 691 
Q 1341 388 1753 388 
Q 2084 388 2306 591 
Q 2528 794 2588 1216 
z
" transform="scale(0.015625)"/>
       <path id="ArialMT-75" d="M 2597 0 
L 2597 488 
Q 2209 -75 1544 -75 
Q 1250 -75 995 37 
Q 741 150 617 320 
Q 494 491 444 738 
Q 409 903 409 1263 
L 409 3319 
L 972 3319 
L 972 1478 
Q 972 1038 1006 884 
Q 1059 663 1231 536 
Q 1403 409 1656 409 
Q 1909 409 2131 539 
Q 2353 669 2445 892 
Q 2538 1116 2538 1541 
L 2538 3319 
L 3100 3319 
L 3100 0 
L 2597 0 
z
" transform="scale(0.015625)"/>
       <path id="ArialMT-72" d="M 416 0 
L 416 3319 
L 922 3319 
L 922 2816 
Q 1116 3169 1280 3281 
Q 1444 3394 1641 3394 
Q 1925 3394 2219 3213 
L 2025 2691 
Q 1819 2813 1613 2813 
Q 1428 2813 1281 2702 
Q 1134 2591 1072 2394 
Q 978 2094 978 1738 
L 978 0 
L 416 0 
z
" transform="scale(0.015625)"/>
       <path id="ArialMT-6e" d="M 422 0 
L 422 3319 
L 928 3319 
L 928 2847 
Q 1294 3394 1984 3394 
Q 2284 3394 2536 3286 
Q 2788 3178 2913 3003 
Q 3038 2828 3088 2588 
Q 3119 2431 3119 2041 
L 3119 0 
L 2556 0 
L 2556 2019 
Q 2556 2363 2490 2533 
Q 2425 2703 2258 2804 
Q 2091 2906 1866 2906 
Q 1506 2906 1245 2678 
Q 984 2450 984 1813 
L 984 0 
L 422 0 
z
" transform="scale(0.015625)"/>
       <path id="Cmmi10-be" d="M 1197 -72 
Q 913 -72 692 64 
Q 472 200 351 431 
Q 231 663 231 941 
Q 231 1238 365 1566 
Q 500 1894 733 2166 
Q 966 2438 1259 2598 
Q 1553 2759 1863 2759 
L 3475 2759 
Q 3541 2759 3587 2715 
Q 3634 2672 3634 2597 
Q 3634 2503 3567 2433 
Q 3500 2363 3406 2363 
L 2625 2363 
Q 2809 2088 2809 1697 
Q 2809 1375 2684 1062 
Q 2559 750 2337 492 
Q 2116 234 1820 81 
Q 1525 -72 1197 -72 
z
M 1203 97 
Q 1553 97 1823 370 
Q 2094 644 2237 1039 
Q 2381 1434 2381 1772 
Q 2381 2047 2229 2205 
Q 2078 2363 1806 2363 
Q 1434 2363 1173 2113 
Q 913 1863 783 1484 
Q 653 1106 653 756 
Q 653 481 798 289 
Q 944 97 1203 97 
z
" transform="scale(0.015625)"/>
       <path id="Cmmi10-78" d="M 500 184 
Q 613 97 819 97 
Q 1019 97 1172 289 
Q 1325 481 1381 709 
L 1672 1844 
Q 1741 2153 1741 2266 
Q 1741 2425 1652 2544 
Q 1563 2663 1403 2663 
Q 1200 2663 1022 2536 
Q 844 2409 722 2214 
Q 600 2019 550 1819 
Q 538 1778 500 1778 
L 422 1778 
Q 372 1778 372 1838 
L 372 1856 
Q 434 2094 584 2320 
Q 734 2547 951 2687 
Q 1169 2828 1416 2828 
Q 1650 2828 1839 2703 
Q 2028 2578 2106 2363 
Q 2216 2559 2386 2693 
Q 2556 2828 2759 2828 
Q 2897 2828 3040 2779 
Q 3184 2731 3275 2631 
Q 3366 2531 3366 2381 
Q 3366 2219 3261 2101 
Q 3156 1984 2994 1984 
Q 2891 1984 2822 2050 
Q 2753 2116 2753 2216 
Q 2753 2350 2845 2451 
Q 2938 2553 3066 2572 
Q 2950 2663 2747 2663 
Q 2541 2663 2389 2472 
Q 2238 2281 2175 2047 
L 1894 916 
Q 1825 659 1825 494 
Q 1825 331 1917 214 
Q 2009 97 2163 97 
Q 2463 97 2698 361 
Q 2934 625 3009 941 
Q 3022 978 3059 978 
L 3138 978 
Q 3163 978 3178 961 
Q 3194 944 3194 922 
Q 3194 916 3188 903 
Q 3097 522 2806 225 
Q 2516 -72 2150 -72 
Q 1916 -72 1727 54 
Q 1538 181 1459 397 
Q 1359 209 1182 68 
Q 1006 -72 806 -72 
Q 669 -72 523 -23 
Q 378 25 287 125 
Q 197 225 197 378 
Q 197 528 301 651 
Q 406 775 563 775 
Q 669 775 741 711 
Q 813 647 813 544 
Q 813 409 723 309 
Q 634 209 500 184 
z
" transform="scale(0.015625)"/>
       <path id="Cmr10-32" d="M 319 0 
L 319 172 
Q 319 188 331 206 
L 1325 1306 
Q 1550 1550 1690 1715 
Q 1831 1881 1968 2097 
Q 2106 2313 2186 2536 
Q 2266 2759 2266 3009 
Q 2266 3272 2169 3511 
Q 2072 3750 1880 3894 
Q 1688 4038 1416 4038 
Q 1138 4038 916 3870 
Q 694 3703 603 3438 
Q 628 3444 672 3444 
Q 816 3444 917 3347 
Q 1019 3250 1019 3097 
Q 1019 2950 917 2848 
Q 816 2747 672 2747 
Q 522 2747 420 2851 
Q 319 2956 319 3097 
Q 319 3338 409 3548 
Q 500 3759 670 3923 
Q 841 4088 1055 4175 
Q 1269 4263 1509 4263 
Q 1875 4263 2190 4108 
Q 2506 3953 2690 3670 
Q 2875 3388 2875 3009 
Q 2875 2731 2753 2481 
Q 2631 2231 2440 2026 
Q 2250 1822 1953 1562 
Q 1656 1303 1563 1216 
L 838 519 
L 1453 519 
Q 1906 519 2211 526 
Q 2516 534 2534 550 
Q 2609 631 2688 1141 
L 2875 1141 
L 2694 0 
L 319 0 
z
" transform="scale(0.015625)"/>
       <path id="ArialMT-3bc" d="M 3181 3319 
L 3181 0 
L 2678 0 
L 2678 394 
Q 2516 144 2356 50 
Q 2138 -78 1847 -78 
Q 1588 -78 1388 25 
Q 1238 103 1056 334 
L 1056 -1272 
L 500 -1272 
L 500 3319 
L 1056 3319 
L 1056 1913 
Q 1056 1147 1137 920 
Q 1219 694 1401 562 
Q 1584 431 1822 431 
Q 2072 431 2269 568 
Q 2466 706 2547 923 
Q 2628 1141 2628 1903 
L 2628 3319 
L 3181 3319 
z
" transform="scale(0.015625)"/>
       <path id="ArialMT-41" d="M -9 0 
L 1750 4581 
L 2403 4581 
L 4278 0 
L 3588 0 
L 3053 1388 
L 1138 1388 
L 634 0 
L -9 0 
z
M 1313 1881 
L 2866 1881 
L 2388 3150 
Q 2169 3728 2063 4100 
Q 1975 3659 1816 3225 
L 1313 1881 
z
" transform="scale(0.015625)"/>
       <path id="ArialMT-2219" d="M 578 1934 
L 578 2575 
L 1219 2575 
L 1219 1934 
L 578 1934 
z
" transform="scale(0.015625)"/>
       <path id="ArialMT-c5" d="M -9 0 
L 1750 4581 
L 2403 4581 
L 4278 0 
L 3588 0 
L 3053 1388 
L 1138 1388 
L 634 0 
L -9 0 
z
M 1313 1881 
L 2866 1881 
L 2388 3150 
Q 2169 3728 2063 4100 
Q 1975 3659 1816 3225 
L 1313 1881 
z
M 1503 5003 
Q 1503 5231 1670 5397 
Q 1838 5563 2066 5563 
Q 2297 5563 2462 5395 
Q 2628 5228 2628 4991 
Q 2628 4750 2462 4584 
Q 2297 4419 2069 4419 
Q 1834 4419 1668 4586 
Q 1503 4753 1503 5003 
z
M 1741 5000 
Q 1741 4853 1839 4753 
Q 1938 4653 2072 4653 
Q 2206 4653 2304 4753 
Q 2403 4853 2403 4994 
Q 2403 5135 2306 5235 
Q 2209 5335 2072 5335 
Q 1938 5335 1839 5236 
Q 1741 5138 1741 5000 
z
" transform="scale(0.015625)"/>
       <path id="ArialMT-2f" d="M 0 -78 
L 1328 4659 
L 1778 4659 
L 453 -78 
L 0 -78 
z
" transform="scale(0.015625)"/>
      </defs>
      <use xlink:href="#ArialMT-53" transform="translate(0 0.078125)"/>
      <use xlink:href="#ArialMT-68" transform="translate(66.699219 0.078125)"/>
      <use xlink:href="#ArialMT-69" transform="translate(122.314453 0.078125)"/>
      <use xlink:href="#ArialMT-66" transform="translate(144.53125 0.078125)"/>
      <use xlink:href="#ArialMT-74" transform="translate(172.314453 0.078125)"/>
      <use xlink:href="#ArialMT-20" transform="translate(200.097656 0.078125)"/>
      <use xlink:href="#ArialMT-63" transform="translate(227.880859 0.078125)"/>
      <use xlink:href="#ArialMT-75" transform="translate(277.880859 0.078125)"/>
      <use xlink:href="#ArialMT-72" transform="translate(333.496094 0.078125)"/>
      <use xlink:href="#ArialMT-72" transform="translate(366.796875 0.078125)"/>
      <use xlink:href="#ArialMT-65" transform="translate(400.097656 0.078125)"/>
      <use xlink:href="#ArialMT-6e" transform="translate(455.712891 0.078125)"/>
      <use xlink:href="#ArialMT-74" transform="translate(511.328125 0.078125)"/>
      <use xlink:href="#ArialMT-20" transform="translate(539.111328 0.078125)"/>
      <use xlink:href="#Cmmi10-be" transform="translate(566.894531 0.078125)"/>
      <use xlink:href="#Cmmi10-78" transform="translate(630.051484 38.342188)scale(0.7)"/>
      <use xlink:href="#Cmmi10-78" transform="translate(670.007539 38.342188)scale(0.7)"/>
      <use xlink:href="#Cmmi10-78" transform="translate(709.963594 38.342188)scale(0.7)"/>
      <use xlink:href="#ArialMT-20" transform="translate(756.296992 0.078125)"/>
      <use xlink:href="#ArialMT-28" transform="translate(784.080195 0.078125)"/>
      <use xlink:href="#ArialMT-31" transform="translate(817.380977 0.078125)"/>
      <use xlink:href="#ArialMT-30" transform="translate(872.996211 0.078125)"/>
      <use xlink:href="#Cmr10-32" transform="translate(933.075586 38.342188)scale(0.7)"/>
      <use xlink:href="#ArialMT-3bc" transform="translate(974.45293 0.078125)"/>
      <use xlink:href="#ArialMT-41" transform="translate(1032.070117 0.078125)"/>
      <use xlink:href="#ArialMT-2219" transform="translate(1098.769336 0.078125)"/>
      <use xlink:href="#ArialMT-c5" transform="translate(1126.552539 0.078125)"/>
      <use xlink:href="#ArialMT-2f" transform="translate(1193.251758 0.078125)"/>
      <use xlink:href="#ArialMT-56" transform="translate(1221.034961 0.078125)"/>
      <use xlink:href="#Cmr10-32" transform="translate(1292.19832 38.342188)scale(0.7)"/>
      <use xlink:href="#ArialMT-29" transform="translate(1333.575664 0.078125)"/>
     </g>
    </g>
   </g>
   <g id="line2d_14">
    <path d="M 83.895 53.775507 
L 265.467545 53.801245 
L 266.37997 54.009022 
L 267.292395 55.09346 
L 268.20482 58.424181 
L 269.117244 64.072991 
L 270.029669 68.183507 
L 270.942094 66.629962 
L 271.854519 61.268617 
L 272.766944 56.86936 
L 273.679369 54.917479 
L 274.591794 54.288047 
L 277.329068 53.630168 
L 280.978768 53.000854 
L 281.891192 52.661628 
L 283.716042 52.644574 
L 284.628467 52.258941 
L 285.540892 52.099761 
L 286.453317 52.231242 
L 287.365741 52.072868 
L 288.278166 51.775301 
L 289.190591 51.653583 
L 291.015441 51.71697 
L 291.927866 51.566711 
L 292.840291 51.155392 
L 293.752715 50.982706 
L 294.66514 51.519766 
L 295.577565 51.665138 
L 296.48999 50.718502 
L 297.402415 50.247749 
L 298.31484 51.140973 
L 299.227265 51.777157 
L 301.052114 49.764868 
L 301.964539 50.329447 
L 302.876964 51.522772 
L 303.789389 51.254347 
L 304.701814 49.931461 
L 305.614238 49.743456 
L 306.526663 50.8375 
L 307.439088 51.170519 
L 308.351513 50.265584 
L 309.263938 49.841387 
L 310.176363 50.479025 
L 311.088788 50.824587 
L 312.913637 49.809323 
L 313.826062 50.157469 
L 314.738487 50.980998 
L 315.650912 50.800781 
L 316.563337 49.69327 
L 317.475762 49.588714 
L 318.388186 50.696521 
L 319.300611 51.317896 
L 320.213036 51.502252 
L 321.125461 53.537417 
L 322.037886 58.528563 
L 322.950311 64.288917 
L 323.862735 67.928089 
L 324.77516 69.113864 
L 325.687585 69.556596 
L 326.60001 70.35467 
L 327.512435 70.495514 
L 328.42486 69.503178 
L 329.337285 69.167369 
L 330.249709 70.250304 
L 331.162134 71.11907 
L 332.074559 71.524343 
L 332.986984 76.099012 
L 333.899409 92.130904 
L 335.724259 149.365384 
L 336.636683 167.629839 
L 337.549108 175.70713 
L 339.373958 187.413605 
L 340.286383 193.239043 
L 341.198808 199.951214 
L 343.023657 220.872237 
L 343.936082 222.436364 
L 344.848507 211.313808 
L 345.760932 195.150555 
L 346.673357 181.46772 
L 347.585782 171.804543 
L 348.498206 165.619028 
L 350.323056 157.78417 
L 351.235481 154.248745 
L 352.147906 151.922485 
L 353.060331 150.456752 
L 353.972756 149.344176 
L 354.88518 149.057523 
L 356.71003 149.925238 
L 357.622455 150.877623 
L 358.53488 153.024123 
L 359.447305 156.469639 
L 360.359729 161.776013 
L 361.272154 170.755706 
L 362.184579 183.005626 
L 363.097004 192.471247 
L 364.009429 192.167659 
L 364.921854 182.909826 
L 366.746703 159.655268 
L 367.659128 149.554587 
L 368.571553 142.515256 
L 369.483978 138.59926 
L 370.396403 135.390448 
L 371.308828 131.666289 
L 372.221253 128.797189 
L 374.046102 126.303824 
L 374.958527 124.113887 
L 375.870952 124.02704 
L 376.783377 127.919278 
L 377.695802 130.698828 
L 378.608226 126.028078 
L 379.520651 116.344258 
L 380.433076 109.718661 
L 381.345501 107.336485 
L 382.257926 103.418087 
L 383.170351 96.334208 
L 384.082776 91.155018 
L 385.907625 89.799048 
L 387.732475 80.569961 
L 388.6449 79.842569 
L 389.557325 81.171188 
L 390.469749 78.457527 
L 391.382174 72.139765 
L 392.294599 69.076938 
L 393.207024 70.272549 
L 394.119449 68.524681 
L 395.944299 54.611869 
L 396.856723 52.175625 
L 397.769148 52.641745 
L 398.681573 53.521544 
L 399.593998 52.292395 
L 400.506423 48.979304 
L 401.418848 46.887115 
L 402.331273 47.435297 
L 403.243697 48.934671 
L 404.156122 48.837442 
L 405.980972 43.613668 
L 406.893397 44.569124 
L 407.805822 49.303012 
L 408.718246 56.13135 
L 409.630671 62.060639 
L 410.543096 64.741033 
L 411.455521 64.746438 
L 412.367946 63.915486 
L 413.280371 63.324432 
L 414.192796 63.043552 
L 415.10522 63.088345 
L 416.017645 64.144233 
L 416.93007 65.816781 
L 417.842495 66.841195 
L 418.75492 67.048034 
L 420.57977 66.152699 
L 421.492194 67.285371 
L 422.404619 69.261744 
L 423.317044 70.658642 
L 424.229469 71.829002 
L 425.141894 73.943126 
L 426.966743 81.931566 
L 427.879168 82.075076 
L 428.791593 78.442322 
L 429.704018 75.473468 
L 430.616443 76.146604 
L 431.528868 78.860068 
L 432.441293 80.641023 
L 433.353717 80.583344 
L 434.266142 79.452663 
L 435.178567 78.870742 
L 436.090992 80.3973 
L 437.003417 83.526548 
L 437.915842 86.116932 
L 438.828267 87.025138 
L 439.740691 86.962764 
L 440.653116 87.328377 
L 441.565541 88.806986 
L 442.477966 90.739415 
L 443.390391 91.892627 
L 444.302816 91.965287 
L 445.21524 91.655895 
L 446.127665 91.822288 
L 447.04009 92.98011 
L 447.952515 94.584506 
L 448.86494 95.438705 
L 449.777365 95.374416 
L 450.68979 95.496123 
L 451.602214 96.60567 
L 453.427064 100.148546 
L 454.339489 100.592107 
L 455.251914 99.543928 
L 456.164339 97.615479 
L 457.076764 96.033084 
L 457.989188 95.105808 
L 458.901613 94.378947 
L 459.814038 93.364295 
L 460.726463 92.6138 
L 461.638888 92.698704 
L 462.551313 92.645192 
L 463.463737 92.871174 
L 464.376162 93.461775 
L 466.201012 91.767438 
L 467.113437 93.592947 
L 468.025862 96.608016 
L 468.938287 97.681636 
L 469.850711 96.854349 
L 470.763136 96.979316 
L 471.675561 99.031154 
L 472.587986 100.788254 
L 473.500411 101.875352 
L 474.412836 103.920306 
L 475.325261 104.729571 
L 476.237685 101.49386 
L 477.15011 96.635184 
L 478.062535 93.01383 
L 481.712234 80.630334 
L 482.624659 77.279016 
L 483.537084 75.485283 
L 484.449509 74.565061 
L 485.361934 71.998206 
L 486.274359 68.319903 
L 487.186784 66.396297 
L 488.099208 66.341081 
L 489.011633 65.697221 
L 489.924058 63.700569 
L 491.748908 59.136806 
L 492.661333 57.376123 
L 493.573758 56.52099 
L 494.486182 56.284568 
L 495.398607 55.122724 
L 496.311032 52.69294 
L 497.223457 50.965341 
L 498.135882 50.660452 
L 499.048307 49.833145 
L 499.960731 47.277153 
L 500.873156 44.367836 
L 501.785581 42.6426 
L 502.698006 41.54837 
L 503.610431 39.537721 
L 504.522856 36.73937 
L 505.435281 34.627327 
L 506.347705 33.381411 
L 507.26013 32.386897 
L 508.172555 32.297903 
L 509.08498 33.836308 
L 509.997405 35.683569 
L 510.90983 36.110272 
L 511.822255 35.451086 
L 512.734679 35.309883 
L 513.647104 36.350407 
L 514.559529 37.898536 
L 515.471954 38.856202 
L 516.384379 38.551562 
L 517.296804 37.498475 
L 518.209228 37.152659 
L 519.121653 38.459183 
L 520.034078 40.728524 
L 520.946503 42.286943 
L 521.858928 42.807551 
L 522.771353 43.472507 
L 523.683778 43.485232 
L 525.508627 38.818475 
L 526.421052 39.536696 
L 527.333477 42.055065 
L 528.245902 43.850436 
L 529.158327 44.5267 
L 530.070752 43.9676 
L 530.983176 42.869991 
L 531.895601 43.817291 
L 532.808026 46.325623 
L 533.720451 44.580098 
L 535.545301 27.464225 
L 536.457725 23.963636 
L 537.37015 24.580314 
L 538.282575 26.039632 
L 539.195 27.273203 
L 539.195 27.273203 
" clip-path="url(#p98c14ef725)" style="fill: none; stroke-dasharray: 7.4,3.2; stroke-dashoffset: 0; stroke: #4169e1; stroke-width: 2"/>
   </g>
   <g id="patch_3">
    <path d="M 61.13 232.36 
L 61.13 14.04 
" style="fill: none; stroke: #000000; stroke-width: 0.8; stroke-linejoin: miter; stroke-linecap: square"/>
   </g>
   <g id="patch_4">
    <path d="M 561.96 232.36 
L 561.96 14.04 
" style="fill: none; stroke: #000000; stroke-width: 0.8; stroke-linejoin: miter; stroke-linecap: square"/>
   </g>
   <g id="patch_5">
    <path d="M 61.13 232.36 
L 561.96 232.36 
" style="fill: none; stroke: #000000; stroke-width: 0.8; stroke-linejoin: miter; stroke-linecap: square"/>
   </g>
   <g id="patch_6">
    <path d="M 61.13 14.04 
L 561.96 14.04 
" style="fill: none; stroke: #000000; stroke-width: 0.8; stroke-linejoin: miter; stroke-linecap: square"/>
   </g>
   <g id="legend_1">
    <g id="line2d_15">
     <path d="M 77.33 206.2825 
L 90.83 206.2825 
L 104.33 206.2825 
" style="fill: none; stroke-dasharray: 7.4,3.2; stroke-dashoffset: 0; stroke: #4169e1; stroke-width: 2"/>
    </g>
    <g id="text_16">
     <!-- $\sigma^{xxx}$ -->
     <g transform="translate(118.73 212.5825)scale(0.18 -0.18)">
      <use xlink:href="#Cmmi10-be" transform="translate(0 0.804688)"/>
      <use xlink:href="#Cmmi10-78" transform="translate(63.156953 39.06875)scale(0.7)"/>
      <use xlink:href="#Cmmi10-78" transform="translate(103.113008 39.06875)scale(0.7)"/>
      <use xlink:href="#Cmmi10-78" transform="translate(143.069063 39.06875)scale(0.7)"/>
     </g>
    </g>
   </g>
  </g>
 </g>
 <defs>
  <clipPath id="p98c14ef725">
   <rect x="61.13" y="14.04" width="500.83" height="218.32"/>
  </clipPath>
 </defs>
</svg>
